<?xml version="1.0" encoding="utf-8"?>
<!-- Generator: Adobe Illustrator 28.1.0, SVG Export Plug-In . SVG Version: 6.00 Build 0)  -->
<svg version="1.1" id="Layer_1" xmlns="http://www.w3.org/2000/svg" xmlns:xlink="http://www.w3.org/1999/xlink" x="0px" y="0px"
	 viewBox="0 0 1000 1000" style="enable-background:new 0 0 1000 1000;" xml:space="preserve">
<style type="text/css">
	.st0{fill:#FFFFFF;}
	.st1{fill:#FF7900;}
</style>
<g>
	<path d="M500,994.1L500,994.1C227.1,994.1,5.9,772.9,5.9,500l0,0C5.9,227.1,227.1,5.9,500,5.9l0,0c272.9,0,494.1,221.2,494.1,494.1
		l0,0C994.1,772.9,772.8,994.1,500,994.1z"/>
	<g id="logo_mark_00000106868338587636692040000006767987033592283567_">
		<path class="st0" d="M233.6,264.9l-0.5,0.5c65.6,62.6,100.5,146.5,104,233l-153.1,10l-60-151c13.3-36.4,32.2-71.4,57.1-103.9
			c47.2-61.5,109.3-104.7,177.3-128.9l102.1,64.6l9.6,149.3C386.6,344.2,302.1,320.1,233.6,264.9z"/>
		<path class="st0" d="M268.2,765.2l0.5,0.5c62.6-65.6,146.5-100.5,233-104l10,153.1l-151.1,60c-36.4-13.3-71.4-32.2-103.9-57.1
			C195.2,770.5,152,708.4,127.8,640.4l64.6-102.1l149.3-9.6C347.4,612.2,323.3,696.8,268.2,765.2z"/>
		<path class="st0" d="M766.4,735.1l0.5-0.5c-65.6-62.6-100.5-146.5-104-233l153.1-10l60,151c-13.3,36.4-32.2,71.4-57.1,103.9
			C771.7,808,709.6,851.2,641.6,875.4l-102.1-64.6l-9.6-149.3C613.4,655.8,697.9,679.9,766.4,735.1z"/>
		<path class="st1" d="M400,593.4C502.9,479,652.6,279.9,540.2,198.3l229.5-14.8l14.6,224.4C685.2,314.1,503.3,480,400,593.4
			L400,593.4z"/>
	</g>
</g>
</svg>
